<svg xmlns="http://www.w3.org/2000/svg" width="28.235" height="28"><path d="M26.523 10.501A13.555 13.555 0 1113.509.891a13.865 13.865 0 014 .551L15.822 3.14a11.162 11.162 0 00-2.312-.2 11.5 11.5 0 1011.512 11.516 11.742 11.742 0 00-.22-2.242zm-14.7 4.665c-1.091-2.262-2.062-3.394-2.913-3.374a4.9 4.9 0 00-3.213 2 4.064 4.064 0 011.942 1.412 15.837 15.837 0 011.926 3.366l.491 1.061a24.886 24.886 0 011 2.513 11.793 11.793 0 011.131-.871l1.622-1.171A57.582 57.582 0 0120.927 8.99 59.124 59.124 0 0128.235.811l-.6-.811a39.793 39.793 0 00-8.359 7.008 46.88 46.88 0 00-7.088 9.01z" fill="gray"/></svg>