<svg xmlns="http://www.w3.org/2000/svg" width="106.001" height="18"><defs><clipPath id="a"><path data-name="Polygon 2" d="M9 0l2.7 6.043 6.3.833-4.631 4.567L14.562 18 9 14.78 3.438 18l1.194-6.557L0 6.875l6.3-.833z" transform="translate(-.07 .348)" fill="#da291c"/></clipPath></defs><path data-name="Polygon 1" d="M9 0l2.7 6.043 6.3.833-4.631 4.567L14.562 18 9 14.78 3.438 18l1.194-6.557L0 6.875l6.3-.833zm22 0l2.7 6.043 6.3.833-4.631 4.567L36.562 18 31 14.78 25.438 18l1.194-6.557L22 6.875l6.3-.833zm22 0l2.7 6.043 6.3.833-4.631 4.567L58.562 18 53 14.78 47.438 18l1.194-6.557L44 6.875l6.3-.833zm22 0l2.7 6.043 6.3.833-4.631 4.567L80.562 18 75 14.78 69.438 18l1.194-6.557L66 6.875l6.3-.833z" fill="#da291c"/><path data-name="Polygon 1" d="M97 0l2.7 6.043 6.3.833-4.631 4.567L102.562 18 97 14.78 91.438 18l1.194-6.557L88 6.875l6.3-.833z" fill="gray"/><g data-name="Mask Group 1" transform="translate(88.071 -.348)" clip-path="url(#a)"><path data-name="Rectangle 18" fill="#da291c" d="M0 0h7.951v18.348H0z"/></g></svg>