<svg xmlns="http://www.w3.org/2000/svg" width="24" height="24"><path data-name="HM icon" d="M4.2 14.3L4 18.8a1.135 1.135 0 00.3.8.908.908 0 00.7.3l4.4-.3a.713.713 0 00.6-.3L23.2 6.1a.967.967 0 000-1.4L19.1.5a.967.967 0 00-1.4 0L4.5 13.7a3.329 3.329 0 00-.3.6zM18.4 2.6l2.8 2.7-1.1 1.1-2.7-2.8zm-1.7 1.8l2.7 2.7L9 17.6l-1 .1a2.349 2.349 0 00-1.8-1.9l.1-.9zm6.3 6.7a.945.945 0 00-1 1V22H2V2h9.9a.945.945 0 001-1 .945.945 0 00-1-1H1a.945.945 0 00-1 1v22a.945.945 0 001 1h22a.945.945 0 001-1V12.1a.945.945 0 00-1-1z" fill="#fff"/></svg>