<svg data-name="Clifton logos_On black" xmlns="http://www.w3.org/2000/svg" width="224.971" height="57.56"><path data-name="Path 31" d="M28.78 57.56A28.78 28.78 0 100 28.78a28.78 28.78 0 0028.78 28.78" fill="#da291c"/><path data-name="Path 32" d="M40.75 40.85a17 17 0 11.12-24.16l4.49-4.35a23.31 23.31 0 10-.08 32.88z" fill="#fff"/><path data-name="Path 33" d="M75.43 31.36a12.69 12.69 0 01-12-7.94 13.26 13.26 0 01-.93-5.14 13.451 13.451 0 011-5.091 12.79 12.79 0 016.86-7 13.22 13.22 0 015.3-1 15.48 15.48 0 013.17.29 12.84 12.84 0 012.63.81 12.51 12.51 0 012.21 1.25 17.321 17.321 0 011.92 1.6l-2.86 3.3a14.45 14.45 0 00-3.23-2.369 8.4 8.4 0 00-3.88-.87 7.92 7.92 0 00-3.35.71 8.28 8.28 0 00-2.67 1.92 8.6 8.6 0 00-1.74 2.85 9.8 9.8 0 00-.61 3.48v.12a10 10 0 00.61 3.5 8.74 8.74 0 001.74 2.88 8.19 8.19 0 002.67 1.94 7.92 7.92 0 003.35.71 8.28 8.28 0 004-.89 15.9 15.9 0 003.3-2.41l2.86 2.9a16.918 16.918 0 01-2 1.87 14.26 14.26 0 01-2.31 1.41 11.74 11.74 0 01-2.7.91 16.2 16.2 0 01-3.24.31" fill="#fff"/><path data-name="Path 34" d="M90.36 5.54h4.43V26.9h13.34v4.02H90.36z" fill="#fff"/><path data-name="Rectangle 29" fill="#fff" d="M113.061 5.54h4.42v25.38h-4.42z"/><path data-name="Path 35" d="M124.3 5.54h18.85v4.03h-14.43v6.99h12.8v4.03h-12.8v10.33h-4.42z" fill="#fff"/><path data-name="Path 36" d="M154.32 9.68h-8.05V5.54h20.59v4.14h-8.05v21.24h-4.49z" fill="#fff"/><path data-name="Path 37" d="M183.68 31.36a13.55 13.55 0 01-5.36-1 12.64 12.64 0 01-6.89-7 13.169 13.169 0 01-1-5v-.08a13.221 13.221 0 011-5.06 12.74 12.74 0 012.75-4.16 13.22 13.22 0 019.57-3.9 13.57 13.57 0 015.37 1 12.64 12.64 0 016.89 7 13.179 13.179 0 011 5.06v.06a13.181 13.181 0 01-1 5.06 12.89 12.89 0 01-2.75 4.17 13.25 13.25 0 01-4.21 2.77 13.4 13.4 0 01-5.37 1.06m.07-4.1a8.28 8.28 0 003.45-.71 8.05 8.05 0 002.69-1.92 8.86 8.86 0 001.75-2.84 9.6 9.6 0 00.64-3.48v-.01a9.75 9.75 0 00-.64-3.5 8.545 8.545 0 00-11.41-4.86 8.26 8.26 0 00-2.73 1.91 9 9 0 00-1.75 2.85 9.59 9.59 0 00-.63 3.48v.12a9.74 9.74 0 00.63 3.5 8.83 8.83 0 001.77 2.87 8.66 8.66 0 002.73 1.93 8.13 8.13 0 003.46.73" fill="#fff"/><path data-name="Path 38" d="M202.39 5.54h4.12l13.57 17.55V5.54h4.43v25.38h-3.73l-13.97-18.05v18.05h-4.42z" fill="#fff"/><path data-name="Path 39" d="M68.88 42.56h-2.69v5.81c0 1.23.72 1.9 1.58 1.9a2.31 2.31 0 001.27-.37v1.67a5.79 5.79 0 01-1.59.29 2.78 2.78 0 01-3.13-3.09v-6.21h-2.29v-1.59h2.29v-2.46l1.87-.62v3.08h2.69z" fill="#fff"/><path data-name="Path 40" d="M73.5 38.6h-2.11v-2.21h2.11zm-2 2.37h1.87v10.64H71.5z" fill="#fff"/><path data-name="Rectangle 30" fill="#fff" d="M77.01 35.969h1.87v15.63h-1.87z"/><path data-name="Path 41" d="M89.36 51.17a7.54 7.54 0 01-3.21.69c-3.6 0-5.26-2.3-5.26-5.76 0-3.14 1.89-5.37 4.76-5.37 3.39 0 4.49 2.58 4.49 6h-7.26a3.41 3.41 0 003.35 3.55 5.8 5.8 0 003.13-1.06zm-1.22-5.89c0-1.63-.91-3-2.53-3-1.83 0-2.59 1.58-2.73 3z" fill="#fff"/><path data-name="Path 42" d="M91.76 49.52a4.81 4.81 0 002.33.75c.85 0 1.91-.37 1.91-1.52 0-1.94-4.4-1.77-4.4-4.75 0-2.21 1.57-3.27 3.58-3.27a7.43 7.43 0 012.33.41l-.16 1.71a5.28 5.28 0 00-2-.54c-1 0-1.79.42-1.79 1.29 0 2.17 4.4 1.54 4.4 4.94a3.26 3.26 0 01-3.55 3.32 5.58 5.58 0 01-2.78-.59z" fill="#fff"/><path data-name="Path 43" d="M117.98 43.75a9.94 9.94 0 01-1.6 5l2.43 2.88h-2.49l-1.13-1.42a4.71 4.71 0 01-4 1.67c-2.75 0-4.48-1.63-4.48-4.07 0-2.21 1.24-3.46 3.11-4.25a5.22 5.22 0 01-1.44-3.32c0-2.33 1.64-3.41 3.63-3.41a3.15 3.15 0 013.49 3.27c0 1.85-1.58 3.11-3.05 3.79l2.8 3.39a7.32 7.32 0 00.85-3.52zm-6.42 6.53a3.4 3.4 0 002.57-1.39l-3.34-4.11c-1.06.75-2 1.44-2 2.88a2.63 2.63 0 002.77 2.62m-.06-7.55c.84-.42 2.09-1.32 2.09-2.55a1.567 1.567 0 00-1.65-1.79 1.66 1.66 0 00-1.67 1.89 3.93 3.93 0 001.23 2.45" fill="#fff"/><path data-name="Path 44" d="M126.58 35.97h1.92v6.46a3.58 3.58 0 013.37-1.7c2.94 0 4.38 2.52 4.38 5.37s-1.3 5.76-4.36 5.76a4 4 0 01-3.47-1.75v1.5h-1.79zm4.92 6.31c-2 0-3 2-3 4 0 1.77.88 4 3 4s2.85-2.35 2.81-4c0-1.92-.76-3.94-2.79-3.94" fill="#fff"/><path data-name="Path 45" d="M139.22 41.72a6.32 6.32 0 013.35-1c2.91 0 4.08 1.5 4.08 4.39v4.4a17.715 17.715 0 00.08 2.09h-1.75v-1.32a3.72 3.72 0 01-3.15 1.63c-2.19 0-3.72-1-3.72-3.32 0-2.67 2.79-3.5 4.72-3.5h2c0-1.83-.64-2.77-2.51-2.77a4.71 4.71 0 00-3 1.08zm5.56 4.82h-1.19c-1 0-3.53.17-3.53 2a1.82 1.82 0 001.89 1.74 2.62 2.62 0 002.83-2.79z" fill="#fff"/><path data-name="Path 46" d="M155.22 42.56h-2.72v5.81c0 1.23.71 1.9 1.57 1.9a2.32 2.32 0 001.28-.37v1.67a5.87 5.87 0 01-1.6.29 2.78 2.78 0 01-3.13-3.09v-6.21h-2.29v-1.59h2.29v-2.46l1.88-.62v3.08h2.69z" fill="#fff"/><path data-name="Path 47" d="M157.57 35.97h1.87v6.53a3.66 3.66 0 013.27-1.77c2.62 0 3.8 1.7 3.8 4.56v6.32h-1.87V46.1c0-2.48-.52-3.69-2.15-3.79-2.14 0-3.09 1.79-3.09 4.38v4.92h-1.87z" fill="#fff"/><path data-name="Path 48" d="M169.73 40.97h1.77v1.65a3.08 3.08 0 012.64-1.89 5.3 5.3 0 011.24.14v1.75a2.79 2.79 0 00-1-.19c-1.68 0-2.78 1.67-2.78 4.34v4.84h-1.87z" fill="#fff"/><path data-name="Path 49" d="M181.98 40.73c3.09 0 5.16 2.33 5.16 5.56a5.18 5.18 0 11-10.34 0c0-3.23 2.07-5.56 5.18-5.56m0 9.54c2.19 0 3.17-2.08 3.17-4s-1.18-4-3.17-4-3.18 2-3.18 4 1 4 3.18 4" fill="#fff"/><path data-name="Path 50" d="M194.15 40.73c3.09 0 5.16 2.33 5.16 5.56a5.18 5.18 0 11-10.34 0c0-3.23 2.07-5.56 5.18-5.56m0 9.54c2.19 0 3.17-2.08 3.17-4s-1.18-4-3.17-4-3.19 2-3.19 4 1 4 3.19 4" fill="#fff"/><path data-name="Path 51" d="M201.8 40.97h1.75v1.55a3.4 3.4 0 013.23-1.79 3 3 0 012.88 2.06 3.61 3.61 0 013.15-2.06c2.59 0 3.53 1.75 3.53 4.06v6.82h-1.84v-6.33c0-1.31-.3-3-1.82-3-1.91 0-2.67 2-2.67 3.94v5.36h-1.87v-6.3c0-1.31-.3-3-1.81-3-1.91 0-2.67 2-2.67 3.94v5.36h-1.86z" fill="#fff"/><path data-name="Path 52" d="M218.77 49.52a4.81 4.81 0 002.33.75c.85 0 1.91-.37 1.91-1.52 0-1.94-4.4-1.77-4.4-4.75 0-2.21 1.57-3.27 3.58-3.27a7.48 7.48 0 012.33.41l-.16 1.71a5.28 5.28 0 00-2-.54c-1 0-1.79.42-1.79 1.29 0 2.17 4.4 1.54 4.4 4.94a3.26 3.26 0 01-3.47 3.32 5.58 5.58 0 01-2.78-.59z" fill="#fff"/></svg>