<svg xmlns="http://www.w3.org/2000/svg" width="605.2" height="31.417"><g data-name="Measure lines graphic" fill="none" stroke="#fff" stroke-width="2"><path data-name="Line 9" d="M34.511 31.417V0"/><path data-name="Line 14" d="M76.4 31.417V0"/><path data-name="Line 19" d="M118.289 31.417V0"/><path data-name="Line 24" d="M160.177 31.417V0"/><path data-name="Line 29" d="M202.066 31.417V0"/><path data-name="Line 34" d="M243.955 31.417V0"/><path data-name="Line 39" d="M285.844 31.417V0"/><path data-name="Line 44" d="M327.733 31.417V0"/><path data-name="Line 49" d="M369.622 31.417V0"/><path data-name="Line 54" d="M411.511 31.417V0"/><path data-name="Line 59" d="M453.399 31.417V0"/><path data-name="Line 64" d="M495.288 31.417V0"/><path data-name="Line 69" d="M537.177 31.417V0"/><path data-name="Line 74" d="M579.066 31.417V0"/><path data-name="Line 5" d="M1 31.416V15.708"/><path data-name="Line 10" d="M42.889 31.416V15.708"/><path data-name="Line 15" d="M84.777 31.416V15.708"/><path data-name="Line 20" d="M126.666 31.416V15.708"/><path data-name="Line 25" d="M168.555 31.416V15.708"/><path data-name="Line 30" d="M210.444 31.416V15.708"/><path data-name="Line 35" d="M252.333 31.416V15.708"/><path data-name="Line 40" d="M294.222 31.416V15.708"/><path data-name="Line 45" d="M336.111 31.416V15.708"/><path data-name="Line 50" d="M378 31.416V15.708"/><path data-name="Line 55" d="M419.888 31.416V15.708"/><path data-name="Line 60" d="M461.777 31.416V15.708"/><path data-name="Line 65" d="M503.666 31.416V15.708"/><path data-name="Line 70" d="M545.555 31.416V15.708"/><path data-name="Line 75" d="M587.444 31.416V15.708"/><path data-name="Line 6" d="M9.378 31.416V15.708"/><path data-name="Line 11" d="M51.266 31.416V15.708"/><path data-name="Line 16" d="M93.155 31.416V15.708"/><path data-name="Line 21" d="M135.044 31.416V15.708"/><path data-name="Line 26" d="M176.933 31.416V15.708"/><path data-name="Line 31" d="M218.822 31.416V15.708"/><path data-name="Line 36" d="M260.711 31.416V15.708"/><path data-name="Line 41" d="M302.6 31.416V15.708"/><path data-name="Line 46" d="M344.488 31.416V15.708"/><path data-name="Line 51" d="M386.377 31.416V15.708"/><path data-name="Line 56" d="M428.266 31.416V15.708"/><path data-name="Line 61" d="M470.155 31.416V15.708"/><path data-name="Line 66" d="M512.044 31.416V15.708"/><path data-name="Line 71" d="M553.933 31.416V15.708"/><path data-name="Line 76" d="M595.822 31.416V15.708"/><path data-name="Line 7" d="M17.755 31.416V15.708"/><path data-name="Line 12" d="M59.644 31.416V15.708"/><path data-name="Line 17" d="M101.533 31.416V15.708"/><path data-name="Line 22" d="M143.422 31.416V15.708"/><path data-name="Line 27" d="M185.311 31.416V15.708"/><path data-name="Line 32" d="M227.2 31.416V15.708"/><path data-name="Line 37" d="M269.088 31.416V15.708"/><path data-name="Line 42" d="M310.977 31.416V15.708"/><path data-name="Line 47" d="M352.866 31.416V15.708"/><path data-name="Line 52" d="M394.755 31.416V15.708"/><path data-name="Line 57" d="M436.644 31.416V15.708"/><path data-name="Line 62" d="M478.533 31.416V15.708"/><path data-name="Line 67" d="M520.422 31.416V15.708"/><path data-name="Line 72" d="M562.31 31.416V15.708"/><path data-name="Line 77" d="M604.199 31.416V15.708"/><path data-name="Line 8" d="M26.133 31.416V15.708"/><path data-name="Line 13" d="M68.022 31.416V15.708"/><path data-name="Line 18" d="M109.911 31.416V15.708"/><path data-name="Line 23" d="M151.8 31.416V15.708"/><path data-name="Line 28" d="M193.689 31.416V15.708"/><path data-name="Line 33" d="M235.577 31.416V15.708"/><path data-name="Line 38" d="M277.466 31.416V15.708"/><path data-name="Line 43" d="M319.355 31.416V15.708"/><path data-name="Line 48" d="M361.244 31.416V15.708"/><path data-name="Line 53" d="M403.133 31.416V15.708"/><path data-name="Line 58" d="M445.022 31.416V15.708"/><path data-name="Line 63" d="M486.911 31.416V15.708"/><path data-name="Line 68" d="M528.799 31.416V15.708"/><path data-name="Line 73" d="M570.688 31.416V15.708"/></g></svg>