<svg xmlns="http://www.w3.org/2000/svg" width="29.44" height="28" viewBox="0 0 29.44 28"><defs><style>.a{fill:gray;}</style></defs><path class="a" d="M19.742,12.316l1.48,4.55a2.1,2.1,0,0,0,2,1.45H28l-3.87,2.81a2.09,2.09,0,0,0-.76,2.35l1.47,4.55-3.87-2.81a2.09,2.09,0,0,0-2.46,0l-3.87,2.81,1.47-4.55a2.09,2.09,0,0,0-.76-2.35l-3.87-2.81h4.78a2.1,2.1,0,0,0,2-1.45l1.48-4.55m0-6.79-3.48,10.69H5.022l9.1,6.61-3.48,10.7,9.1-6.61,9.1,6.61-3.48-10.7,9.1-6.61H23.222l-3.48-10.69Z" transform="translate(-5.022 -5.526)"/></svg>