<svg xmlns="http://www.w3.org/2000/svg" width="38" height="26.6" viewBox="0 0 38 26.6"><defs><style>.a{fill:gray;}</style></defs><path class="a" d="M32.6,16.4l6.6-5L25.9,6.8l-5.7,4.8L14.5,6.8,1.2,11.4l6.3,4.8-5,5L8,23.1H7.8V29L20,33.4,32.2,29V23.1H32l5.5-1.9ZM26.3,9.2l8.5,2.9-4.5,3.4h0l-8.1-2.9ZM5.6,12.1,14,9.2l4,3.4-8,2.9Zm.8,8.2,3.2-3.2,8.3,3-2.6,3.3ZM19.2,30.9,10,27.5V23.8L16,26l3.1-4ZM30,27.5l-8.8,3.2V22.6L24,26l6.1-2.1Zm-5.3-4-2.6-3.3,8.3-3,3.2,3.2Z" transform="translate(-1.2 -6.8)"/></svg>