<svg xmlns="http://www.w3.org/2000/svg" width="22.956" height="27.911" viewBox="0 0 22.956 27.911"><defs><style>.a{fill:gray;}</style></defs><path class="a" d="M31,24.45a2.66,2.66,0,0,0,.39-2.16A3.92,3.92,0,0,0,30.22,20l.14-.26c.71-1.53-.48-3.42-.62-3.63-.78-1.2-2-1.14-3.84-1.06-.58,0-1.25.06-2,.06a12.31,12.31,0,0,0-2.07.14,11.82,11.82,0,0,0,.84-2.54l.05-.27c.46-2.32,1.08-5.51-2.05-6.35-2.48-.66-3.34,2.05-4,4a10.21,10.21,0,0,1-.85,2.16,11.05,11.05,0,0,1-2.62,2.28,15.31,15.31,0,0,0-3.6,3.22c-1.64,2.29-1,6-.76,6.89a43.441,43.441,0,0,0-.31,4.93c0,3.2,1.67,3.87,3.08,3.87h6.48l.2-.1a3,3,0,0,0,.62-.45,2.41,2.41,0,0,0,.35.36l.19.15h.24a44.629,44.629,0,0,0,6.07.5h.89c1.06,0,1.78-.25,3-1.64a3,3,0,0,0,.62-3.14,3.79,3.79,0,0,0,1-2.77,3.4,3.4,0,0,0-.35-1.83Q30.962,24.487,31,24.45Zm-9.2-3h.57c.66,0,3.77-.15,5.73-.37a2,2,0,0,1,1.28,1.57,1.07,1.07,0,0,1,0,.6s-.16.17-1,.26c-1-.05-2.95-.05-5.95,0h-.61a5.62,5.62,0,0,0-.69,0h-.66a1.27,1.27,0,0,1-.75-.23,1,1,0,0,1-.27-.77c.05-.24.34-1,2-1.07h.31Zm6.41,6.4c-1.46,0-6.74-.26-7.76-.31-.22-.1-.72-.38-.76-.81-.06-.73,0-.94.06-1a1.24,1.24,0,0,1,.7-.17,4.87,4.87,0,0,0,.8,0h2.48c1,0,2,.05,2.9.05a15.193,15.193,0,0,0,1.87-.06h.11a2.16,2.16,0,0,1,.47.06,1.39,1.39,0,0,1,.09.77c-.02,1.46-.4,1.46-.92,1.46Zm-4.35-10.7c.82,0,1.53,0,2.14-.06,1-.05,1.89-.09,2,.13a2.42,2.42,0,0,1,.47,1.67.24.24,0,0,1-.13.07,11.86,11.86,0,0,0-3.6.14c-1,.12-2.08.25-3.14.3a1.34,1.34,0,0,1-.19-.62c-.11-.82.08-1.37.32-1.44l.74-.12h.38A5.1,5.1,0,0,1,23.86,17.15ZM17.51,31.42H11.59c-.49,0-1.05,0-1.05-1.83a43.072,43.072,0,0,1,.32-4.85v-.19l-.05-.19c-.25-1-.67-3.91.4-5.4a13.76,13.76,0,0,1,3.13-2.75,12.67,12.67,0,0,0,3.14-2.82,11.64,11.64,0,0,0,1.08-2.65c.47-1.47.91-2.69,1.43-2.69h.08c1.12.3,1.12,1.21.58,4l-.05.27a18.4,18.4,0,0,1-2.41,5.24c-.15.24-.26.42-.33.55a3.89,3.89,0,0,0-.27,1.8,5.54,5.54,0,0,1-.69,3.24A4.41,4.41,0,0,1,14.7,25l.42,2A5.07,5.07,0,0,0,17,26l-.12.13A4.47,4.47,0,0,1,18,28.9a3.07,3.07,0,0,1-.49,2.52ZM28,31c-.82.95-.93.95-1.69.92H25.7a47.439,47.439,0,0,1-5.36-.4.72.72,0,0,1-.14-.63c.08-.23.12-.43.17-.6a.9.9,0,0,1,0-.19,5.56,5.56,0,0,1,1.24-.17c1.87-.14,5.37-.05,6.62,0C28.44,30.19,28.44,30.55,28,31Z" transform="translate(-8.514 -5.989)"/></svg>