<svg xmlns="http://www.w3.org/2000/svg" width="24" height="24" viewBox="0 0 24 24">
  <path id="HM_icon" data-name="HM icon" d="M12.2,22.3,12,26.8a1.135,1.135,0,0,0,.3.8.908.908,0,0,0,.7.3h0l4.4-.3a.713.713,0,0,0,.6-.3L31.2,14.1a.967.967,0,0,0,0-1.4h0L27.1,8.5a.967.967,0,0,0-1.4,0h0L12.5,21.7A3.329,3.329,0,0,0,12.2,22.3ZM26.4,10.6l2.8,2.7-1.1,1.1-2.7-2.8Zm-1.7,1.8,2.7,2.7L17,25.6l-1,.1a2.349,2.349,0,0,0-1.8-1.9l.1-.9ZM31,19.1a.945.945,0,0,0-1,1V30H10V10h9.9a.945.945,0,0,0,1-1,.945.945,0,0,0-1-1H9A.945.945,0,0,0,8,9V31a.945.945,0,0,0,1,1H31a.945.945,0,0,0,1-1V20.1a.945.945,0,0,0-1-1Z" transform="translate(-8 -8)" fill="#fff"/>
</svg>
