<svg xmlns="http://www.w3.org/2000/svg" width="28.235" height="28" viewBox="0 0 28.235 28"><defs><style>.a{fill:gray;}</style></defs><path class="a" d="M33.028,16.061a13.555,13.555,0,1,1-13.014-9.61,13.865,13.865,0,0,1,4,.551L22.327,8.7a11.162,11.162,0,0,0-2.312-.2A11.5,11.5,0,1,0,31.527,20.016a11.742,11.742,0,0,0-.22-2.242Zm-14.7,4.665c-1.091-2.262-2.062-3.394-2.913-3.374a4.9,4.9,0,0,0-3.213,2,4.064,4.064,0,0,1,1.942,1.412A15.837,15.837,0,0,1,16.07,24.13l.491,1.061a24.886,24.886,0,0,1,1,2.513,11.793,11.793,0,0,1,1.131-.871l1.622-1.171A57.582,57.582,0,0,1,27.432,14.55,59.124,59.124,0,0,1,34.74,6.371l-.6-.811a39.793,39.793,0,0,0-8.359,7.008,46.88,46.88,0,0,0-7.088,9.01Z" transform="translate(-6.505 -5.56)"/></svg>