<svg id="Clifton_logos_On_black" data-name="Clifton logos_On black" xmlns="http://www.w3.org/2000/svg" width="224.971" height="57.56" viewBox="0 0 224.971 57.56">
  <path id="Path_31" data-name="Path 31" d="M91.28,76.28A28.78,28.78,0,1,0,62.5,47.5,28.78,28.78,0,0,0,91.28,76.28" transform="translate(-62.5 -18.72)" fill="#da291c"/>
  <path id="Path_32" data-name="Path 32" d="M103.25,59.57a17,17,0,1,1,.12-24.16l4.49-4.35a23.31,23.31,0,1,0-.08,32.88Z" transform="translate(-62.5 -18.72)" fill="#fff"/>
  <path id="Path_33" data-name="Path 33" d="M137.93,50.08a12.69,12.69,0,0,1-12-7.94A13.26,13.26,0,0,1,125,37h0a13.451,13.451,0,0,1,1-5.091,12.79,12.79,0,0,1,6.86-7,13.22,13.22,0,0,1,5.3-1,15.48,15.48,0,0,1,3.17.29,12.84,12.84,0,0,1,2.63.81,12.51,12.51,0,0,1,2.21,1.25,17.321,17.321,0,0,1,1.92,1.6l-2.86,3.3A14.45,14.45,0,0,0,142,28.79a8.4,8.4,0,0,0-3.88-.87,7.92,7.92,0,0,0-3.35.71,8.28,8.28,0,0,0-2.67,1.92,8.6,8.6,0,0,0-1.74,2.85,9.8,9.8,0,0,0-.61,3.48V37a10,10,0,0,0,.61,3.5,8.74,8.74,0,0,0,1.74,2.88,8.19,8.19,0,0,0,2.67,1.94,7.92,7.92,0,0,0,3.35.71,8.28,8.28,0,0,0,4-.89,15.9,15.9,0,0,0,3.3-2.41l2.86,2.9a16.918,16.918,0,0,1-2,1.87,14.26,14.26,0,0,1-2.31,1.41,11.74,11.74,0,0,1-2.7.91,16.2,16.2,0,0,1-3.24.31" transform="translate(-62.5 -18.72)" fill="#fff"/>
  <path id="Path_34" data-name="Path 34" d="M152.86,24.26h4.43V45.62h13.34v4.02H152.86Z" transform="translate(-62.5 -18.72)" fill="#fff"/>
  <rect id="Rectangle_29" data-name="Rectangle 29" width="4.42" height="25.38" transform="translate(113.061 5.54)" fill="#fff"/>
  <path id="Path_35" data-name="Path 35" d="M186.8,24.26h18.85v4.03H191.22v6.99h12.8v4.03h-12.8V49.64H186.8Z" transform="translate(-62.5 -18.72)" fill="#fff"/>
  <path id="Path_36" data-name="Path 36" d="M216.82,28.4h-8.05V24.26h20.59V28.4h-8.05V49.64h-4.49Z" transform="translate(-62.5 -18.72)" fill="#fff"/>
  <path id="Path_37" data-name="Path 37" d="M246.18,50.08a13.55,13.55,0,0,1-5.36-1,12.64,12.64,0,0,1-6.89-7,13.169,13.169,0,0,1-1-5V37a13.221,13.221,0,0,1,1-5.06,12.74,12.74,0,0,1,2.75-4.16,13.22,13.22,0,0,1,9.57-3.9,13.57,13.57,0,0,1,5.37,1,12.64,12.64,0,0,1,6.89,7,13.179,13.179,0,0,1,1,5.06V37a13.181,13.181,0,0,1-1,5.06,12.89,12.89,0,0,1-2.75,4.17A13.25,13.25,0,0,1,251.55,49a13.4,13.4,0,0,1-5.37,1.06m.07-4.1a8.28,8.28,0,0,0,3.45-.71,8.05,8.05,0,0,0,2.69-1.92,8.86,8.86,0,0,0,1.75-2.84,9.6,9.6,0,0,0,.64-3.48V37a9.75,9.75,0,0,0-.64-3.5,8.545,8.545,0,0,0-11.41-4.86A8.26,8.26,0,0,0,240,30.55a9,9,0,0,0-1.75,2.85,9.59,9.59,0,0,0-.63,3.48V37a9.74,9.74,0,0,0,.63,3.5,8.83,8.83,0,0,0,1.77,2.87,8.66,8.66,0,0,0,2.73,1.93,8.13,8.13,0,0,0,3.46.73" transform="translate(-62.5 -18.72)" fill="#fff"/>
  <path id="Path_38" data-name="Path 38" d="M264.89,24.26h4.12l13.57,17.55V24.26h4.43V49.64h-3.73L269.31,31.59V49.64h-4.42Z" transform="translate(-62.5 -18.72)" fill="#fff"/>
  <path id="Path_39" data-name="Path 39" d="M131.38,61.28h-2.69v5.81c0,1.23.72,1.9,1.58,1.9a2.31,2.31,0,0,0,1.27-.37v1.67a5.79,5.79,0,0,1-1.59.29,2.78,2.78,0,0,1-3.13-3.09V61.28h-2.29V59.69h2.29V57.23l1.87-.62v3.08h2.69Z" transform="translate(-62.5 -18.72)" fill="#fff"/>
  <path id="Path_40" data-name="Path 40" d="M136,57.32h-2.11V55.11H136Zm-2,2.37h1.87V70.33H134Z" transform="translate(-62.5 -18.72)" fill="#fff"/>
  <rect id="Rectangle_30" data-name="Rectangle 30" width="1.87" height="15.63" transform="translate(77.01 35.969)" fill="#fff"/>
  <path id="Path_41" data-name="Path 41" d="M151.86,69.89a7.54,7.54,0,0,1-3.21.69c-3.6,0-5.26-2.3-5.26-5.76,0-3.14,1.89-5.37,4.76-5.37,3.39,0,4.49,2.58,4.49,6h-7.26A3.41,3.41,0,0,0,148.73,69a5.8,5.8,0,0,0,3.13-1.06ZM150.64,64c0-1.63-.91-3-2.53-3-1.83,0-2.59,1.58-2.73,3Z" transform="translate(-62.5 -18.72)" fill="#fff"/>
  <path id="Path_42" data-name="Path 42" d="M154.26,68.24a4.81,4.81,0,0,0,2.33.75c.85,0,1.91-.37,1.91-1.52,0-1.94-4.4-1.77-4.4-4.75,0-2.21,1.57-3.27,3.58-3.27a7.43,7.43,0,0,1,2.33.41l-.16,1.71a5.28,5.28,0,0,0-2-.54c-1,0-1.79.42-1.79,1.29,0,2.17,4.4,1.54,4.4,4.94a3.26,3.26,0,0,1-3.55,3.32,5.58,5.58,0,0,1-2.78-.59Z" transform="translate(-62.5 -18.72)" fill="#fff"/>
  <path id="Path_43" data-name="Path 43" d="M180.48,62.47a9.94,9.94,0,0,1-1.6,5l2.43,2.88h-2.49l-1.13-1.42a4.71,4.71,0,0,1-4,1.67c-2.75,0-4.48-1.63-4.48-4.07,0-2.21,1.24-3.46,3.11-4.25a5.22,5.22,0,0,1-1.44-3.32c0-2.33,1.64-3.41,3.63-3.41A3.15,3.15,0,0,1,178,58.82c0,1.85-1.58,3.11-3.05,3.79l2.8,3.39a7.32,7.32,0,0,0,.85-3.52ZM174.06,69a3.4,3.4,0,0,0,2.57-1.39l-3.34-4.11c-1.06.75-2,1.44-2,2.88A2.63,2.63,0,0,0,174.06,69M174,61.45c.84-.42,2.09-1.32,2.09-2.55a1.567,1.567,0,0,0-1.65-1.79A1.66,1.66,0,0,0,172.77,59,3.93,3.93,0,0,0,174,61.45" transform="translate(-62.5 -18.72)" fill="#fff"/>
  <path id="Path_44" data-name="Path 44" d="M189.08,54.69H191v6.46h0a3.58,3.58,0,0,1,3.37-1.7c2.94,0,4.38,2.52,4.38,5.37s-1.3,5.76-4.36,5.76a4,4,0,0,1-3.47-1.75h0v1.5h-1.79ZM194,61c-2,0-3,2-3,4,0,1.77.88,4,3,4s2.85-2.35,2.81-4c0-1.92-.76-3.94-2.79-3.94" transform="translate(-62.5 -18.72)" fill="#fff"/>
  <path id="Path_45" data-name="Path 45" d="M201.72,60.44a6.32,6.32,0,0,1,3.35-1c2.91,0,4.08,1.5,4.08,4.39v4.4a17.715,17.715,0,0,0,.08,2.09h-1.75V69h0a3.72,3.72,0,0,1-3.15,1.63c-2.19,0-3.72-1-3.72-3.32,0-2.67,2.79-3.5,4.72-3.5h2c0-1.83-.64-2.77-2.51-2.77a4.71,4.71,0,0,0-3,1.08Zm5.56,4.82h-1.19c-1,0-3.53.17-3.53,2A1.82,1.82,0,0,0,204.45,69a2.62,2.62,0,0,0,2.83-2.79Z" transform="translate(-62.5 -18.72)" fill="#fff"/>
  <path id="Path_46" data-name="Path 46" d="M217.72,61.28H215v5.81c0,1.23.71,1.9,1.57,1.9a2.32,2.32,0,0,0,1.28-.37v1.67a5.87,5.87,0,0,1-1.6.29,2.78,2.78,0,0,1-3.13-3.09V61.28h-2.29V59.69h2.29V57.23l1.88-.62v3.08h2.69Z" transform="translate(-62.5 -18.72)" fill="#fff"/>
  <path id="Path_47" data-name="Path 47" d="M220.07,54.69h1.87v6.53h0a3.66,3.66,0,0,1,3.27-1.77c2.62,0,3.8,1.7,3.8,4.56v6.32h-1.87V64.82c0-2.48-.52-3.69-2.15-3.79-2.14,0-3.09,1.79-3.09,4.38v4.92h-1.87Z" transform="translate(-62.5 -18.72)" fill="#fff"/>
  <path id="Path_48" data-name="Path 48" d="M232.23,59.69H234v1.65h0a3.08,3.08,0,0,1,2.64-1.89,5.3,5.3,0,0,1,1.24.14v1.75a2.79,2.79,0,0,0-1-.19c-1.68,0-2.78,1.67-2.78,4.34v4.84h-1.87Z" transform="translate(-62.5 -18.72)" fill="#fff"/>
  <path id="Path_49" data-name="Path 49" d="M244.48,59.45c3.09,0,5.16,2.33,5.16,5.56a5.18,5.18,0,1,1-10.34,0c0-3.23,2.07-5.56,5.18-5.56m0,9.54c2.19,0,3.17-2.08,3.17-4s-1.18-4-3.17-4-3.18,2-3.18,4,1,4,3.18,4" transform="translate(-62.5 -18.72)" fill="#fff"/>
  <path id="Path_50" data-name="Path 50" d="M256.65,59.45c3.09,0,5.16,2.33,5.16,5.56a5.18,5.18,0,1,1-10.34,0c0-3.23,2.07-5.56,5.18-5.56m0,9.54c2.19,0,3.17-2.08,3.17-4s-1.18-4-3.17-4-3.19,2-3.19,4,1,4,3.19,4" transform="translate(-62.5 -18.72)" fill="#fff"/>
  <path id="Path_51" data-name="Path 51" d="M264.3,59.69h1.75v1.55h0a3.4,3.4,0,0,1,3.23-1.79,3,3,0,0,1,2.88,2.06,3.61,3.61,0,0,1,3.15-2.06c2.59,0,3.53,1.75,3.53,4.06v6.82H277V64c0-1.31-.3-3-1.82-3-1.91,0-2.67,2-2.67,3.94V70.3h-1.87V64c0-1.31-.3-3-1.81-3-1.91,0-2.67,2-2.67,3.94V70.3H264.3Z" transform="translate(-62.5 -18.72)" fill="#fff"/>
  <path id="Path_52" data-name="Path 52" d="M281.27,68.24a4.81,4.81,0,0,0,2.33.75c.85,0,1.91-.37,1.91-1.52,0-1.94-4.4-1.77-4.4-4.75,0-2.21,1.57-3.27,3.58-3.27a7.48,7.48,0,0,1,2.33.41l-.16,1.71a5.28,5.28,0,0,0-2-.54c-1,0-1.79.42-1.79,1.29,0,2.17,4.4,1.54,4.4,4.94A3.26,3.26,0,0,1,284,70.58a5.58,5.58,0,0,1-2.78-.59Z" transform="translate(-62.5 -18.72)" fill="#fff"/>
</svg>
